<?xml version="1.0" encoding="UTF-8" standalone="no"?>
<svg
   xmlns:dc="http://purl.org/dc/elements/1.1/"
   xmlns:cc="http://creativecommons.org/ns#"
   xmlns:rdf="http://www.w3.org/1999/02/22-rdf-syntax-ns#"
   xmlns:svg="http://www.w3.org/2000/svg"
   xmlns="http://www.w3.org/2000/svg"
   viewBox="0 0 478.66666 268"
   height="268"
   width="478.66666"
   xml:space="preserve"
   id="svg2"
   version="1.1"><metadata
     id="metadata8"><rdf:RDF><cc:Work
         rdf:about=""><dc:format>image/svg+xml</dc:format><dc:type
           rdf:resource="http://purl.org/dc/dcmitype/StillImage" /></cc:Work></rdf:RDF></metadata><defs
     id="defs6" /><g
     transform="matrix(1.3333333,0,0,-1.3333333,0,268)"
     id="g10"><g
       transform="scale(0.1)"
       id="g12"><path
         id="path14"
         style="fill:#ffffff;fill-opacity:1;fill-rule:nonzero;stroke:none"
         d="M 0,0 H 3590 V 2010 H 0 Z" /><path
         id="path16"
         style="fill:#ffffff;fill-opacity:1;fill-rule:nonzero;stroke:none"
         d="M 0,0 H 3590 V 2010 H 0 Z" /><g
         transform="scale(10)"
         id="g18"><text
           id="text22"
           style="font-variant:normal;font-weight:normal;font-size:8px;font-family:Times;-inkscape-font-specification:Times-Roman;writing-mode:lr-tb;fill:#000000;fill-opacity:1;fill-rule:nonzero;stroke:none"
           transform="matrix(1,0,0,-1,3.2,169)"><tspan
             id="tspan20"
             y="0"
             x="0 4.888">LA</tspan></text>
</g><path
         id="path24"
         style="fill:none;stroke:#000000;stroke-width:12;stroke-linecap:butt;stroke-linejoin:miter;stroke-miterlimit:10;stroke-dasharray:none;stroke-opacity:1"
         d="m 360,1610 h 1230 v 220 H 360 Z" /><path
         id="path26"
         style="fill:none;stroke:#262626;stroke-width:5;stroke-linecap:square;stroke-linejoin:round;stroke-miterlimit:10;stroke-dasharray:none;stroke-opacity:1"
         d="m 3230,1610 v 220" /><path
         id="path28"
         style="fill:none;stroke:#262626;stroke-width:5;stroke-linecap:square;stroke-linejoin:round;stroke-miterlimit:10;stroke-dasharray:none;stroke-opacity:1"
         d="m 3230,1610 h -28.7" /><path
         id="path30"
         style="fill:none;stroke:#262626;stroke-width:5;stroke-linecap:square;stroke-linejoin:round;stroke-miterlimit:10;stroke-dasharray:none;stroke-opacity:1"
         d="m 3230,1720 h -28.7" /><path
         id="path32"
         style="fill:none;stroke:#262626;stroke-width:5;stroke-linecap:square;stroke-linejoin:round;stroke-miterlimit:10;stroke-dasharray:none;stroke-opacity:1"
         d="m 3230,1830 h -28.7" /><g
         transform="scale(10)"
         id="g34"><text
           id="text42"
           style="font-variant:normal;font-weight:normal;font-size:8px;font-family:Times;-inkscape-font-specification:Times-Roman;writing-mode:lr-tb;fill:#262626;fill-opacity:1;fill-rule:nonzero;stroke:none"
           transform="matrix(1,0,0,-1,324.6,158)"><tspan
             id="tspan36"
             y="0"
             x="0">0</tspan><tspan
             id="tspan38"
             y="-11"
             x="0 4">10</tspan><tspan
             id="tspan40"
             y="-22"
             x="0 4">20</tspan></text>
</g><path
         id="path44"
         style="fill:none;stroke:#7f7f7f;stroke-width:12;stroke-linecap:butt;stroke-linejoin:round;stroke-miterlimit:10;stroke-dasharray:none;stroke-opacity:1"
         d="m 442,1695.35 82,-9.28 82,-16.87 82,-15.8 82,-12.51 82,-9.23 82,-6.57 82,-4.57 82,-3.16 82,-2.16 82,-1.47 82,-1.01 82,-0.68 82,-0.46 82,-0.32 82,-0.21 82,23.93 82,43.7 82,36.36 82,29.09 82,23.38 82,17.87 82,13.23 82,9.26 82,6 82,3.39 82,1.35 82,-0.25 82,-1.47 82,-2.38 82,-3.06 82,-3.52 82,-3.82 82,-4.01 82,-4.09" /><g
         transform="scale(10)"
         id="g46"><text
           id="text50"
           style="font-variant:normal;font-weight:normal;font-size:8px;font-family:Times;-inkscape-font-specification:Times-Roman;writing-mode:lr-tb;fill:#000000;fill-opacity:1;fill-rule:nonzero;stroke:none"
           transform="matrix(1,0,0,-1,3.2,128.5)"><tspan
             id="tspan48"
             y="0"
             x="0 4.888 10.224 15.56">TBCD</tspan></text>
</g><path
         id="path52"
         style="fill:none;stroke:#000000;stroke-width:12;stroke-linecap:butt;stroke-linejoin:miter;stroke-miterlimit:10;stroke-dasharray:none;stroke-opacity:1"
         d="m 606,1205 h 2624 v 220 H 606 Z" /><path
         id="path54"
         style="fill:none;stroke:#262626;stroke-width:5;stroke-linecap:square;stroke-linejoin:round;stroke-miterlimit:10;stroke-dasharray:none;stroke-opacity:1"
         d="m 3230,1205 v 220" /><path
         id="path56"
         style="fill:none;stroke:#262626;stroke-width:5;stroke-linecap:square;stroke-linejoin:round;stroke-miterlimit:10;stroke-dasharray:none;stroke-opacity:1"
         d="m 3230,1205 h -28.7" /><path
         id="path58"
         style="fill:none;stroke:#262626;stroke-width:5;stroke-linecap:square;stroke-linejoin:round;stroke-miterlimit:10;stroke-dasharray:none;stroke-opacity:1"
         d="m 3230,1315 h -28.7" /><path
         id="path60"
         style="fill:none;stroke:#262626;stroke-width:5;stroke-linecap:square;stroke-linejoin:round;stroke-miterlimit:10;stroke-dasharray:none;stroke-opacity:1"
         d="m 3230,1425 h -28.7" /><g
         transform="scale(10)"
         id="g62"><text
           id="text70"
           style="font-variant:normal;font-weight:normal;font-size:8px;font-family:Times;-inkscape-font-specification:Times-Roman;writing-mode:lr-tb;fill:#262626;fill-opacity:1;fill-rule:nonzero;stroke:none"
           transform="matrix(1,0,0,-1,324.6,117.5)"><tspan
             id="tspan64"
             y="0"
             x="0">8</tspan><tspan
             id="tspan66"
             y="-11"
             x="0 4">10</tspan><tspan
             id="tspan68"
             y="-22"
             x="0 4">12</tspan></text>
</g><path
         id="path72"
         style="fill:none;stroke:#7f7f7f;stroke-width:12;stroke-linecap:butt;stroke-linejoin:round;stroke-miterlimit:10;stroke-dasharray:none;stroke-opacity:1"
         d="m 442,1240.99 82,-1.69 82,-3 82,-2.67 82,2.26 82,8.09 82,11.04 82,12.59 82,13.15 82,12.88 82,12.01 82,10.78 82,9.36 82,7.93 82,6.59 82,5.37 82,4.32 82,3.44 82,11.45 82,12.88 82,8.96 82,5.17 82,2.26 82,0.68 82,-0.25 82,-0.83 82,-1.19 82,-1.38 82,-1.47 82,-1.48 82,-1.44 82,-1.39 82,-1.31 82,-1.23 82,-1.15" /><g
         transform="scale(10)"
         id="g74"><text
           id="text84"
           style="font-variant:normal;font-weight:normal;font-size:8px;font-family:Times;-inkscape-font-specification:Times-Roman;writing-mode:lr-tb;fill:#000000;fill-opacity:1;fill-rule:nonzero;stroke:none"
           transform="matrix(1,0,0,-1,3,93)"><tspan
             id="tspan76"
             y="0"
             x="0 4.888 8.8879995 12.888 16.440001">Tone </tspan><tspan
             id="tspan78"
             y="11"
             x="2 4.664 9.552 15.328 20.664">(LAR)</tspan><tspan
             id="tspan80"
             y="0"
             x="0 4.888 8.8879995 12.888 16.440001">Tone </tspan><tspan
             id="tspan82"
             y="11"
             x="2 4.664 9.552 15.328 20.664">(LAR)</tspan></text>
</g><path
         id="path86"
         style="fill:#9999ff;fill-opacity:1;fill-rule:nonzero;stroke:none"
         d="m 852,805 h 2378 v 220 H 852 Z" /><path
         id="path88"
         style="fill:none;stroke:#000000;stroke-width:12;stroke-linecap:butt;stroke-linejoin:miter;stroke-miterlimit:10;stroke-dasharray:none;stroke-opacity:1"
         d="m 852,805 h 2378 v 220 H 852 Z" /><path
         id="path90"
         style="fill:#ffffff;fill-opacity:1;fill-rule:nonzero;stroke:none"
         d="M 360,400 H 3230 V 625 H 360 Z" /><path
         id="path92"
         style="fill:none;stroke:#262626;stroke-width:5;stroke-linecap:square;stroke-linejoin:round;stroke-miterlimit:10;stroke-dasharray:none;stroke-opacity:1"
         d="M 360,400 H 3230" /><path
         id="path94"
         style="fill:none;stroke:#262626;stroke-width:5;stroke-linecap:square;stroke-linejoin:round;stroke-miterlimit:10;stroke-dasharray:none;stroke-opacity:1"
         d="m 360,400 v 28.699" /><path
         id="path96"
         style="fill:none;stroke:#262626;stroke-width:5;stroke-linecap:square;stroke-linejoin:round;stroke-miterlimit:10;stroke-dasharray:none;stroke-opacity:1"
         d="m 770,400 v 28.699" /><path
         id="path98"
         style="fill:none;stroke:#262626;stroke-width:5;stroke-linecap:square;stroke-linejoin:round;stroke-miterlimit:10;stroke-dasharray:none;stroke-opacity:1"
         d="m 1180,400 v 28.699" /><path
         id="path100"
         style="fill:none;stroke:#262626;stroke-width:5;stroke-linecap:square;stroke-linejoin:round;stroke-miterlimit:10;stroke-dasharray:none;stroke-opacity:1"
         d="m 1590,400 v 28.699" /><path
         id="path102"
         style="fill:none;stroke:#262626;stroke-width:5;stroke-linecap:square;stroke-linejoin:round;stroke-miterlimit:10;stroke-dasharray:none;stroke-opacity:1"
         d="m 2000,400 v 28.699" /><path
         id="path104"
         style="fill:none;stroke:#262626;stroke-width:5;stroke-linecap:square;stroke-linejoin:round;stroke-miterlimit:10;stroke-dasharray:none;stroke-opacity:1"
         d="m 2410,400 v 28.699" /><path
         id="path106"
         style="fill:none;stroke:#262626;stroke-width:5;stroke-linecap:square;stroke-linejoin:round;stroke-miterlimit:10;stroke-dasharray:none;stroke-opacity:1"
         d="m 2820,400 v 28.699" /><path
         id="path108"
         style="fill:none;stroke:#262626;stroke-width:5;stroke-linecap:square;stroke-linejoin:round;stroke-miterlimit:10;stroke-dasharray:none;stroke-opacity:1"
         d="m 3230,400 v 28.699" /><g
         transform="scale(10)"
         id="g110"><text
           id="text114"
           style="font-variant:normal;font-weight:normal;font-size:10px;font-family:Helvetica;-inkscape-font-specification:Helvetica;writing-mode:lr-tb;fill:#262626;fill-opacity:1;fill-rule:nonzero;stroke:none"
           transform="matrix(1,0,0,-1,33,26)"><tspan
             id="tspan112"
             y="0"
             x="0 41 79 84.559998 120 125.56 161 166.56 202 207.56 243 248.56 284 289.56">05101520253035</tspan></text>
<text
           id="text118"
           style="font-variant:normal;font-weight:normal;font-size:11px;font-family:Helvetica;-inkscape-font-specification:Helvetica;writing-mode:lr-tb;fill:#262626;fill-opacity:1;fill-rule:nonzero;stroke:none"
           transform="matrix(1,0,0,-1,163.5,11.5)"><tspan
             id="tspan116"
             y="0"
             x="0 6.7210002 10.384 16.5 25.663">Frame</tspan></text>
</g><path
         id="path120"
         style="fill:none;stroke:#262626;stroke-width:5;stroke-linecap:square;stroke-linejoin:round;stroke-miterlimit:10;stroke-dasharray:none;stroke-opacity:1"
         d="M 360,400 V 625" /><g
         transform="scale(10)"
         id="g122"><text
           id="text128"
           style="font-variant:normal;font-weight:normal;font-size:8px;font-family:Times;-inkscape-font-specification:Times-Roman;writing-mode:lr-tb;fill:#000000;fill-opacity:1;fill-rule:nonzero;stroke:none"
           transform="matrix(1,0,0,-1,3,53)"><tspan
             id="tspan124"
             y="0"
             x="0 5.776 9.776 12 15.552 17.775999 21.775999 25.775999">Voicing </tspan><tspan
             id="tspan126"
             y="11"
             x="2 4.664 9.552 15.328 20.664">(LAR)</tspan></text>
</g><path
         id="path130"
         style="fill:#ff9999;fill-opacity:1;fill-rule:nonzero;stroke:none"
         d="M 360,400 H 1590 V 625 H 360 Z" /><path
         id="path132"
         style="fill:none;stroke:#000000;stroke-width:12;stroke-linecap:butt;stroke-linejoin:miter;stroke-miterlimit:10;stroke-dasharray:none;stroke-opacity:1"
         d="M 360,400 H 1590 V 625 H 360 Z" /></g></g></svg>